{
	"asset":{
		"version":"2.0",
		"generator":"Maxon Cinema 4D 2026.1.4 (#200000219)"
	},
	"scenes":[{
		"nodes":[0,
		1,
		2]
	}],
	"nodes":[{
		"name":"Sphère",
		"translation":[0.0,
		0.0,
		0.0],
		"rotation":[-0.010117308236658574,
		0.2166435718536377,
		-0.006051274947822094,
		0.9761795997619629],
		"scale":[1.0,
		1.0,
		1.0]
	},
	{
		"name":"bras",
		"translation":[0.0,
		0.0,
		0.0],
		"rotation":[-0.035732049494981769,
		0.1699107438325882,
		-0.025004960596561433,
		0.9844939112663269],
		"scale":[1.0,
		1.0,
		1.0],
		"children":[3,
		4,
		5,
		6]
	},
	{
		"name":"Sphère_Calque(2)",
		"translation":[0.0,
		0.0,
		0.0],
		"rotation":[-0.010117308236658574,
		0.2166435718536377,
		-0.006051274947822094,
		0.9761795997619629],
		"scale":[1.0,
		1.0,
		1.0],
		"children":[7,
		8]
	},
	{
		"name":"main 1",
		"mesh":0,
		"translation":[-1.101444959640503,
		-0.5450439453125,
		-0.18696656823158265],
		"rotation":[-0.7935123443603516,
		6.938893903907228e-16,
		0.4719134271144867,
		0.38423416018486025],
		"scale":[1.0,
		1.0,
		1.0]
	},
	{
		"name":"main",
		"mesh":1,
		"translation":[1.101444959640503,
		-0.5450439453125,
		-0.18696656823158265],
		"rotation":[-0.7935123443603516,
		6.938893903907228e-16,
		0.4719134271144867,
		0.38423416018486025],
		"scale":[1.0,
		1.0,
		1.0]
	},
	{
		"name":"Extrusion contrôlée 1",
		"translation":[0.0,
		0.0,
		0.0],
		"rotation":[0.0,
		0.0,
		1.0,
		-6.123234262925839e-17],
		"scale":[1.0,
		-1.0,
		1.0],
		"children":[9]
	},
	{
		"name":"Extrusion contrôlée",
		"children":[10]
	},
	{
		"name":"Sphère_Calque(2)-Mat",
		"mesh":2
	},
	{
		"name":"Sphère_Calque(2)-Mat.2",
		"mesh":3
	},
	{
		"name":"Extrusion contrôlée 1",
		"mesh":4,
		"translation":[0.0,
		0.0,
		0.0],
		"rotation":[0.0,
		0.0,
		1.0,
		-6.123234262925839e-17],
		"scale":[1.0,
		-1.0,
		1.0]
	},
	{
		"name":"Extrusion contrôlée",
		"mesh":5
	}],
	"meshes":[{
		"name":"main 1",
		"primitives":[{
			"attributes":{
				"POSITION":1
			},
			"indices":0,
			"material":0
		}]
	},
	{
		"name":"main",
		"primitives":[{
			"attributes":{
				"POSITION":3
			},
			"indices":2,
			"material":0
		}]
	},
	{
		"name":"Sphère_Calque(2)-Mat",
		"primitives":[{
			"attributes":{
				"POSITION":5
			},
			"indices":4,
			"material":0
		}]
	},
	{
		"name":"Sphère_Calque(2)-Mat.2",
		"primitives":[{
			"attributes":{
				"POSITION":7
			},
			"indices":6,
			"material":1
		}]
	},
	{
		"name":"Extrusion contrôlée 1",
		"primitives":[{
			"attributes":{
				"POSITION":9
			},
			"indices":8,
			"material":0
		}]
	},
	{
		"name":"Extrusion contrôlée",
		"primitives":[{
			"attributes":{
				"POSITION":11
			},
			"indices":10,
			"material":0
		}]
	}],
	"accessors":[{
		"bufferView":0,
		"type":"SCALAR",
		"componentType":5123,
		"count":2880,
		"byteOffset":0,
		"min":[0],
		"max":[481]
	},
	{
		"bufferView":1,
		"type":"VEC3",
		"componentType":5126,
		"count":482,
		"byteOffset":0,
		"min":[-0.07798150181770325,
		-0.07793866842985153,
		-0.07797632366418839],
		"max":[0.07798150181770325,
		0.07793866842985153,
		0.07797632366418839]
	},
	{
		"bufferView":2,
		"type":"SCALAR",
		"componentType":5123,
		"count":2880,
		"byteOffset":0,
		"min":[0],
		"max":[481]
	},
	{
		"bufferView":3,
		"type":"VEC3",
		"componentType":5126,
		"count":482,
		"byteOffset":0,
		"min":[-0.0780550166964531,
		-0.0780550166964531,
		-0.0780550166964531],
		"max":[0.0780550166964531,
		0.0780550166964531,
		0.0780550166964531]
	},
	{
		"bufferView":4,
		"type":"SCALAR",
		"componentType":5123,
		"count":50304,
		"byteOffset":0,
		"min":[0],
		"max":[8465]
	},
	{
		"bufferView":5,
		"type":"VEC3",
		"componentType":5126,
		"count":8466,
		"byteOffset":0,
		"min":[-0.9879693388938904,
		-0.9879693388938904,
		-0.8742372989654541],
		"max":[0.9879693388938904,
		1.9586235284805298,
		0.9879693388938904]
	},
	{
		"bufferView":6,
		"type":"SCALAR",
		"componentType":5123,
		"count":7296,
		"byteOffset":0,
		"min":[0],
		"max":[1297]
	},
	{
		"bufferView":7,
		"type":"VEC3",
		"componentType":5126,
		"count":1298,
		"byteOffset":0,
		"min":[-0.7413305044174194,
		-0.5930882096290588,
		-0.9879693388938904],
		"max":[0.889057993888855,
		0.5293711423873901,
		-0.433298796415329]
	},
	{
		"bufferView":8,
		"type":"SCALAR",
		"componentType":5123,
		"count":5172,
		"byteOffset":0,
		"min":[0],
		"max":[863]
	},
	{
		"bufferView":9,
		"type":"VEC3",
		"componentType":5126,
		"count":864,
		"byteOffset":0,
		"min":[-1.2045480012893677,
		-0.5253845453262329,
		-0.17225046455860139],
		"max":[-0.9844738245010376,
		-0.0423116609454155,
		0.029984647408127786]
	},
	{
		"bufferView":10,
		"type":"SCALAR",
		"componentType":5123,
		"count":5172,
		"byteOffset":0,
		"min":[0],
		"max":[863]
	},
	{
		"bufferView":11,
		"type":"VEC3",
		"componentType":5126,
		"count":864,
		"byteOffset":0,
		"min":[0.9844738245010376,
		-0.5253845453262329,
		-0.17225046455860139],
		"max":[1.2045480012893677,
		-0.0423116609454155,
		0.029984647408127786]
	}],
	"bufferViews":[{
		"buffer":0,
		"byteOffset":0,
		"byteLength":5760,
		"target":34963
	},
	{
		"buffer":0,
		"byteOffset":5760,
		"byteLength":5784,
		"target":34962
	},
	{
		"buffer":1,
		"byteOffset":0,
		"byteLength":5760,
		"target":34963
	},
	{
		"buffer":1,
		"byteOffset":5760,
		"byteLength":5784,
		"target":34962
	},
	{
		"buffer":2,
		"byteOffset":0,
		"byteLength":100608,
		"target":34963
	},
	{
		"buffer":2,
		"byteOffset":100608,
		"byteLength":101592,
		"target":34962
	},
	{
		"buffer":3,
		"byteOffset":0,
		"byteLength":14592,
		"target":34963
	},
	{
		"buffer":3,
		"byteOffset":14592,
		"byteLength":15576,
		"target":34962
	},
	{
		"buffer":4,
		"byteOffset":0,
		"byteLength":10344,
		"target":34963
	},
	{
		"buffer":4,
		"byteOffset":10344,
		"byteLength":10368,
		"target":34962
	},
	{
		"buffer":5,
		"byteOffset":0,
		"byteLength":10344,
		"target":34963
	},
	{
		"buffer":5,
		"byteOffset":10344,
		"byteLength":10368,
		"target":34962
	}],
	"buffers":[{
		"uri":"data:application/octet-stream;base64,",
		"byteLength":11544
	},
	{
		"uri":"data:application/octet-stream;base64,",
		"byteLength":11544
	},
	{
		"uri":"data:application/octet-stream;base64,",
		"byteLength":202200
	},
	{
		"uri":"data:application/octet-stream;base64,",
		"byteLength":30168
	},
	{
		"uri":"data:application/octet-stream;base64,",
		"byteLength":20712
	},
	{
		"uri":"data:application/octet-stream;base64,",
		"byteLength":20712
	}],
	"images":[{
		"uri":"data:image/png;base64,"
	}],
	"samplers":[{
		"magFilter":9729,
		"minFilter":9729,
		"wrapS":10497,
		"wrapT":10497
	}],
	"textures":[{
		"sampler":0,
		"source":0
	}],
	"materials":[{
		"pbrMetallicRoughness":{
			"baseColorFactor":[0.5,
			0.5,
			0.5,
			1.0],
			"metallicFactor":0.0,
			"roughnessFactor":0.20000000298023225
		},
		"emissiveFactor":[0.0,
		0.0,
		0.0],
		"alphaMode":"OPAQUE",
		"doubleSided":false,
		"name":"Mat"
	},
	{
		"pbrMetallicRoughness":{
			"baseColorTexture":{
				"index":0
			},
			"baseColorFactor":[1.0,
			1.0,
			1.0,
			1.0],
			"metallicFactor":0.0,
			"roughnessFactor":0.20000000298023225
		},
		"emissiveFactor":[0.0,
		0.0,
		0.0],
		"alphaMode":"OPAQUE",
		"doubleSided":false,
		"name":"Mat.2"
	}]
}