{
	"asset":{
		"version":"2.0",
		"generator":"Maxon Cinema 4D 2026.1.4 (#200000219)"
	},
	"nodes":[{
		"name":"Bloom2",
		"children":[1,
		2]
	},
	{
		"name":"bras",
		"translation":[0.04055684432387352,
		0.0012696546036750079,
		-0.050071075558662418],
		"rotation":[0.005493459291756153,
		-0.19705037772655488,
		-0.015988342463970186,
		0.9802476167678833],
		"scale":[1.0,
		1.0,
		1.0],
		"children":[3,
		4]
	},
	{
		"name":"bloom",
		"translation":[2.2737367036103439e-15,
		-2.6645351995433717e-17,
		3.081487842142955e-35],
		"rotation":[0.010117308236658574,
		-0.2166435718536377,
		-0.006051274947822094,
		0.9761795997619629],
		"scale":[1.0,
		1.0,
		1.0],
		"children":[5,
		6]
	},
	{
		"name":"bras 1",
		"mesh":0,
		"translation":[-1.0390747785568238,
		-0.0000769405669416301,
		0.3064461648464203],
		"rotation":[0.8024515509605408,
		0.3670768737792969,
		-0.3638918399810791,
		0.29817578196525576],
		"scale":[1.0,
		1.0,
		1.0]
	},
	{
		"name":"bras",
		"mesh":1,
		"translation":[1.0390747785568238,
		-0.0000769405669416301,
		0.3064461648464203],
		"rotation":[0.8024515509605408,
		0.3670768737792969,
		-0.3638918399810791,
		0.29817578196525576],
		"scale":[1.0,
		1.0,
		1.0]
	},
	{
		"name":"bloom-Mat",
		"mesh":2
	},
	{
		"name":"bloom-Mat.2",
		"mesh":3
	}],
	"scenes":[{
		"nodes":[0]
	}],
	"meshes":[{
		"name":"bras 1",
		"primitives":[{
			"attributes":{
				"POSITION":1
			},
			"indices":0,
			"material":0
		}]
	},
	{
		"name":"bras",
		"primitives":[{
			"attributes":{
				"POSITION":3
			},
			"indices":2,
			"material":0
		}]
	},
	{
		"name":"bloom-Mat",
		"primitives":[{
			"attributes":{
				"POSITION":5
			},
			"indices":4,
			"material":0
		}]
	},
	{
		"name":"bloom-Mat.2",
		"primitives":[{
			"attributes":{
				"POSITION":7
			},
			"indices":6,
			"material":1
		}]
	}],
	"accessors":[{
		"bufferView":0,
		"type":"SCALAR",
		"componentType":5123,
		"count":1530,
		"byteOffset":0,
		"min":[0],
		"max":[256]
	},
	{
		"bufferView":1,
		"type":"VEC3",
		"componentType":5126,
		"count":257,
		"byteOffset":0,
		"min":[-0.6207529902458191,
		-0.08641013503074646,
		-0.35889044404029848],
		"max":[0.42320504784584048,
		0.35336345434188845,
		0.16452623903751374]
	},
	{
		"bufferView":2,
		"type":"SCALAR",
		"componentType":5123,
		"count":1530,
		"byteOffset":0,
		"min":[0],
		"max":[256]
	},
	{
		"bufferView":3,
		"type":"VEC3",
		"componentType":5126,
		"count":257,
		"byteOffset":0,
		"min":[-0.5790196657180786,
		-0.5199999809265137,
		-0.1323452740907669],
		"max":[0.13307426869869233,
		0.431321382522583,
		0.1323452740907669]
	},
	{
		"bufferView":4,
		"type":"SCALAR",
		"componentType":5123,
		"count":50304,
		"byteOffset":0,
		"min":[0],
		"max":[8465]
	},
	{
		"bufferView":5,
		"type":"VEC3",
		"componentType":5126,
		"count":8466,
		"byteOffset":0,
		"min":[-0.9879693388938904,
		-0.9879693388938904,
		-0.9879693388938904],
		"max":[0.9879693388938904,
		1.916439175605774,
		0.8330029845237732]
	},
	{
		"bufferView":6,
		"type":"SCALAR",
		"componentType":5123,
		"count":7296,
		"byteOffset":0,
		"min":[0],
		"max":[1297]
	},
	{
		"bufferView":7,
		"type":"VEC3",
		"componentType":5126,
		"count":1298,
		"byteOffset":0,
		"min":[-0.7413305044174194,
		-0.5930882096290588,
		0.433298796415329],
		"max":[0.889057993888855,
		0.6520659923553467,
		0.9879693388938904]
	}],
	"bufferViews":[{
		"buffer":0,
		"byteOffset":0,
		"byteLength":3060,
		"target":34963
	},
	{
		"buffer":0,
		"byteOffset":3060,
		"byteLength":3084,
		"target":34962
	},
	{
		"buffer":1,
		"byteOffset":0,
		"byteLength":3060,
		"target":34963
	},
	{
		"buffer":1,
		"byteOffset":3060,
		"byteLength":3084,
		"target":34962
	},
	{
		"buffer":2,
		"byteOffset":0,
		"byteLength":100608,
		"target":34963
	},
	{
		"buffer":2,
		"byteOffset":100608,
		"byteLength":101592,
		"target":34962
	},
	{
		"buffer":3,
		"byteOffset":0,
		"byteLength":14592,
		"target":34963
	},
	{
		"buffer":3,
		"byteOffset":14592,
		"byteLength":15576,
		"target":34962
	}],
	"buffers":[{
		"uri":"data:application/octet-stream;base64,",
		"byteLength":6144
	},
	{
		"uri":"data:application/octet-stream;base64,",
		"byteLength":6144
	},
	{
		"uri":"data:application/octet-stream;base64,",
		"byteLength":202200
	},
	{
		"uri":"data:application/octet-stream;base64,",
		"byteLength":30168
	}],
	"materials":[{
		"pbrMetallicRoughness":{
			"baseColorFactor":[0.5,
			0.5,
			0.5,
			1.0],
			"metallicFactor":0.0,
			"roughnessFactor":0.20000000298023225
		},
		"emissiveFactor":[0.0,
		0.0,
		0.0],
		"alphaMode":"OPAQUE",
		"doubleSided":false,
		"name":"Mat"
	},
	{
		"pbrMetallicRoughness":{
			"baseColorFactor":[1.0,
			1.0,
			1.0,
			1.0],
			"metallicFactor":0.0,
			"roughnessFactor":0.20000000298023225
		},
		"emissiveFactor":[0.0,
		0.0,
		0.0],
		"alphaMode":"OPAQUE",
		"doubleSided":false,
		"name":"Mat.2"
	}]
}