{
	"asset":{
		"version":"2.0",
		"generator":"Maxon Cinema 4D 2026.1.4 (#200000219)"
	},
	"textures":[{
		"sampler":0,
		"source":0
	},
	{
		"sampler":1,
		"source":1
	}],
	"nodes":[{
		"name":"bloom",
		"mesh":0,
		"translation":[2.2737367036103439e-15,
		-2.6645351995433717e-17,
		3.081487842142955e-35],
		"rotation":[0.010117308236658574,
		-0.2166435718536377,
		-0.006051274947822094,
		0.9761795997619629],
		"scale":[1.0,
		1.0,
		1.0],
		"children":[1]
	},
	{
		"name":"bras",
		"translation":[-0.025072786957025529,
		-0.0003639104252215475,
		-0.060909561812877658],
		"rotation":[-0.006446924060583115,
		0.020005494356155397,
		0.010142788290977478,
		0.9997276067733765],
		"scale":[1.0,
		1.0,
		1.0],
		"children":[2,
		3]
	},
	{
		"name":"bras 1",
		"mesh":1,
		"translation":[-1.0390747785568238,
		-0.0000769405669416301,
		0.3064461648464203],
		"rotation":[0.8024515509605408,
		0.3670768737792969,
		-0.3638918399810791,
		0.29817578196525576],
		"scale":[1.0,
		1.0,
		1.0]
	},
	{
		"name":"bras",
		"mesh":2,
		"translation":[1.0390747785568238,
		-0.0000769405669416301,
		0.3064461648464203],
		"rotation":[0.8024515509605408,
		0.3670768737792969,
		-0.3638918399810791,
		0.29817578196525576],
		"scale":[1.0,
		1.0,
		1.0]
	}],
	"scenes":[{
		"nodes":[0]
	}],
	"samplers":[{
		"magFilter":9729,
		"minFilter":9729,
		"wrapS":10497,
		"wrapT":10497
	},
	{
		"magFilter":9729,
		"minFilter":9729,
		"wrapS":10497,
		"wrapT":10497
	}],
	"meshes":[{
		"name":"bloom",
		"primitives":[{
			"attributes":{
				"POSITION":1,
				"TEXCOORD_0":2
			},
			"indices":0,
			"material":0
		}]
	},
	{
		"name":"bras 1",
		"primitives":[{
			"attributes":{
				"POSITION":4,
				"TEXCOORD_0":5
			},
			"indices":3,
			"material":1
		}]
	},
	{
		"name":"bras",
		"primitives":[{
			"attributes":{
				"POSITION":7,
				"TEXCOORD_0":8
			},
			"indices":6,
			"material":1
		}]
	}],
	"accessors":[{
		"bufferView":0,
		"type":"SCALAR",
		"componentType":5123,
		"count":57600,
		"byteOffset":0,
		"min":[0],
		"max":[9763]
	},
	{
		"bufferView":1,
		"type":"VEC3",
		"componentType":5126,
		"count":9764,
		"byteOffset":0,
		"min":[-0.9879693388938904,
		-0.9879693388938904,
		-0.9879693388938904],
		"max":[0.9879693388938904,
		1.916439175605774,
		0.9879693388938904]
	},
	{
		"bufferView":1,
		"type":"VEC2",
		"componentType":5126,
		"count":9764,
		"byteOffset":12,
		"min":[0.12933474779129029,
		0.037308469414711],
		"max":[0.9445289969444275,
		0.796544075012207]
	},
	{
		"bufferView":2,
		"type":"SCALAR",
		"componentType":5123,
		"count":1530,
		"byteOffset":0,
		"min":[0],
		"max":[301]
	},
	{
		"bufferView":3,
		"type":"VEC3",
		"componentType":5126,
		"count":302,
		"byteOffset":0,
		"min":[-0.6131809949874878,
		-0.08167538791894913,
		-0.35889044404029848],
		"max":[0.42320504784584048,
		0.4200635552406311,
		0.14590971171855927]
	},
	{
		"bufferView":3,
		"type":"VEC2",
		"componentType":5126,
		"count":302,
		"byteOffset":12,
		"min":[0.0,
		0.0],
		"max":[1.0,
		1.0]
	},
	{
		"bufferView":4,
		"type":"SCALAR",
		"componentType":5123,
		"count":1530,
		"byteOffset":0,
		"min":[0],
		"max":[301]
	},
	{
		"bufferView":5,
		"type":"VEC3",
		"componentType":5126,
		"count":302,
		"byteOffset":0,
		"min":[-0.6438653469085693,
		-0.5199999809265137,
		-0.1323452740907669],
		"max":[0.13307426869869233,
		0.3771403133869171,
		0.1323452740907669]
	},
	{
		"bufferView":5,
		"type":"VEC2",
		"componentType":5126,
		"count":302,
		"byteOffset":12,
		"min":[0.0,
		0.0],
		"max":[1.0,
		1.0]
	}],
	"bufferViews":[{
		"buffer":0,
		"target":34963,
		"byteOffset":0,
		"byteLength":115200
	},
	{
		"buffer":0,
		"target":34962,
		"byteOffset":115200,
		"byteLength":195280,
		"byteStride":20
	},
	{
		"buffer":1,
		"target":34963,
		"byteOffset":0,
		"byteLength":3060
	},
	{
		"buffer":1,
		"target":34962,
		"byteOffset":3060,
		"byteLength":6040,
		"byteStride":20
	},
	{
		"buffer":2,
		"target":34963,
		"byteOffset":0,
		"byteLength":3060
	},
	{
		"buffer":2,
		"target":34962,
		"byteOffset":3060,
		"byteLength":6040,
		"byteStride":20
	}],
	"buffers":[{
		"uri":"data:application/octet-stream;base64,",
		"byteLength":310480
	},
	{
		"uri":"data:application/octet-stream;base64,",
		"byteLength":9100
	},
	{
		"uri":"data:application/octet-stream;base64,",
		"byteLength":9100
	}],
	"images":[{
		"uri":"data:image/png;base64,"
	},
	{
		"uri":"data:image/png;base64,"
	}],
	"materials":[{
		"pbrMetallicRoughness":{
			"baseColorTexture":{
				"index":0
			},
			"baseColorFactor":[1.0,
			1.0,
			1.0,
			1.0],
			"metallicFactor":0.0,
			"roughnessFactor":0.20000000298023225
		},
		"emissiveFactor":[0.0,
		0.0,
		0.0],
		"alphaMode":"BLEND",
		"doubleSided":false,
		"name":"Mat.2"
	},
	{
		"pbrMetallicRoughness":{
			"baseColorTexture":{
				"index":1
			},
			"baseColorFactor":[1.0,
			1.0,
			1.0,
			1.0],
			"metallicFactor":0.0,
			"roughnessFactor":0.20000000298023225
		},
		"emissiveFactor":[0.0,
		0.0,
		0.0],
		"alphaMode":"BLEND",
		"doubleSided":false,
		"name":"Mat.2"
	}]
}