<svg width="23" height="23" viewBox="0 0 23 23" fill="none" xmlns="http://www.w3.org/2000/svg">
<path d="M10.542 4.5061C10.5418 4.37262 10.5021 4.24218 10.4278 4.13125C10.3536 4.02033 10.2481 3.93388 10.1248 3.88283C10.0015 3.83177 9.86576 3.81839 9.73483 3.84438C9.6039 3.87037 9.4836 3.93456 9.38912 4.02885L6.14612 7.27089C6.02096 7.39679 5.87207 7.49661 5.70806 7.56455C5.54405 7.63249 5.36818 7.6672 5.19066 7.66668H2.87533C2.62116 7.66668 2.3774 7.76765 2.19768 7.94737C2.01796 8.1271 1.91699 8.37085 1.91699 8.62502V14.375C1.91699 14.6292 2.01796 14.8729 2.19768 15.0527C2.3774 15.2324 2.62116 15.3333 2.87533 15.3333H5.19066C5.36818 15.3328 5.54405 15.3675 5.70806 15.4355C5.87207 15.5034 6.02096 15.6032 6.14612 15.7291L9.38816 18.9721C9.48265 19.0668 9.60312 19.1313 9.7343 19.1575C9.86548 19.1836 10.0015 19.1702 10.125 19.119C10.2486 19.0678 10.3542 18.9811 10.4284 18.8698C10.5027 18.7585 10.5422 18.6277 10.542 18.4939V4.5061Z" stroke="white" stroke-width="1.91667" stroke-linecap="round" stroke-linejoin="round"/>
<path d="M15.333 8.625C15.9551 9.45442 16.2913 10.4632 16.2913 11.5C16.2913 12.5368 15.9551 13.5456 15.333 14.375" stroke="white" stroke-width="1.91667" stroke-linecap="round" stroke-linejoin="round"/>
<path d="M18.5576 17.5988C19.3585 16.7979 19.9939 15.8471 20.4273 14.8007C20.8608 13.7542 21.0839 12.6326 21.0839 11.5C21.0839 10.3673 20.8608 9.24576 20.4273 8.19932C19.9939 7.15288 19.3585 6.20206 18.5576 5.40115" stroke="white" stroke-width="1.91667" stroke-linecap="round" stroke-linejoin="round"/>
</svg>
