<svg width="39" height="39" viewBox="0 0 39 39" fill="none" xmlns="http://www.w3.org/2000/svg">
<path d="M19.3965 0.197266C29.999 0.197305 38.5947 8.79239 38.5947 19.3965L38.5869 19.7295C38.4307 23.1001 35.9851 25.9407 32.6572 26.5859V28.8262C32.6391 30.9174 30.9324 32.5983 28.8418 32.5879L28.8428 32.5889C28.8416 32.5889 28.8401 32.5879 28.8389 32.5879L28.8369 32.5889V32.5879C28.2203 32.6006 27.6155 32.4535 27.0752 32.165V37.208C27.0752 37.9729 26.4544 38.5938 25.6895 38.5938H13.1016C12.3367 38.5938 11.7158 37.9729 11.7158 37.208V32.1641C11.1758 32.4525 10.5696 32.5998 9.95312 32.5869L9.9541 32.5879L9.95117 32.5869L9.94922 32.5879V32.5869C7.85854 32.5972 6.15369 30.9154 6.13574 28.8242V26.584C2.70034 25.919 0.201959 22.9114 0.197266 19.3965C0.183373 14.3014 2.20888 9.41244 5.82129 5.82031C9.42219 2.22069 14.305 0.197266 19.3965 0.197266ZM20.1514 31.7598C19.7225 31.3744 19.0736 31.3741 18.6465 31.7588L18.6377 31.7666C17.9632 32.3091 17.1196 32.5979 16.2549 32.5879L16.2559 32.5889C16.2543 32.5889 16.2526 32.5879 16.251 32.5879L16.249 32.5889V32.5879C15.6328 32.6004 15.0283 32.4534 14.4883 32.165V35.8242H24.3057V32.165C23.7668 32.4525 23.1629 32.6005 22.5479 32.5879L22.5488 32.5889L22.5459 32.5879C22.5446 32.5879 22.5433 32.5889 22.542 32.5889V32.5879C21.6776 32.5977 20.8345 32.3089 20.1602 31.7666L20.1514 31.7598ZM8.90723 28.8193C8.92016 29.3829 9.3869 29.8299 9.9502 29.8184H9.95898C10.2347 29.8249 10.5031 29.7219 10.7031 29.5322L10.7168 29.5205C12.0307 28.4924 13.8418 28.4277 15.2178 29.3271L15.4873 29.5205L15.498 29.5283L15.4971 29.5293L15.5801 29.5967C16.0064 29.913 16.6025 29.8901 17.0029 29.5293L17.0137 29.5195C18.3262 28.4915 20.1389 28.4275 21.5137 29.3271L21.7822 29.5205L21.793 29.5283L21.665 29.6699L21.793 29.5293C22.2201 29.9141 22.8707 29.9141 23.2979 29.5293L23.3086 29.5195C24.6211 28.4915 26.4337 28.4275 27.8086 29.3271L28.0771 29.5205L28.0918 29.5322C28.2669 29.6982 28.4937 29.7976 28.7324 29.8154L28.835 29.8184H28.8438C29.4052 29.8298 29.8707 29.3858 29.8877 28.8242V26.7197H8.90723V28.8193ZM19.3965 2.96875C10.3241 2.96882 2.96875 10.3241 2.96875 19.3965C2.97199 21.9097 5.00824 23.9453 7.52148 23.9482H31.2715C33.7848 23.9452 35.821 21.9097 35.8242 19.3965C35.8242 10.324 28.4689 2.96875 19.3965 2.96875Z" fill="white" stroke="white" stroke-width="0.395851" stroke-linejoin="round"/>
</svg>
