<svg width="43" height="43" viewBox="0 0 43 43" fill="none" xmlns="http://www.w3.org/2000/svg">
<path d="M14.1001 24.6741V28.199M21.1499 26.4365V29.9614M28.1997 24.6741V28.199M14.1001 33.4863V35.2488M21.1499 35.2488V37.0112M28.1997 33.4863V35.2488M10.6052 15.907C10.5853 16.1831 10.5752 16.4619 10.5752 16.743M10.6052 15.907C6.62532 16.3316 3.52539 19.7002 3.52539 23.7929C3.52539 26.7353 5.12778 29.3035 7.50754 30.6725M10.6052 15.907C11.0335 9.97035 15.9854 5.28711 22.0311 5.28711C27.0916 5.28711 31.3857 8.56824 32.9021 13.1191C36.3556 14.602 38.7744 18.0337 38.7744 22.0304C38.7744 25.1056 37.3424 27.8463 35.1089 29.6222" stroke="white" stroke-width="3.5249" stroke-linecap="round" stroke-linejoin="round"/>
</svg>
