<svg width="38" height="37" viewBox="0 0 38 37" fill="none" xmlns="http://www.w3.org/2000/svg">
<path d="M37.9967 21.6028V18.0306C37.9967 15.9509 36.3044 14.2585 34.2246 14.2585H33.8783C33.7783 9.92578 32.1644 6.2699 29.1939 3.66858C26.4928 1.30139 22.8725 0 18.9984 0C15.1243 0 11.5043 1.30322 8.80285 3.66858C5.83227 6.27141 4.21856 9.92555 4.11847 14.2585H3.77214C1.69237 14.2585 0 15.9509 0 18.0306V21.6028C0 23.6826 1.69237 25.375 3.77214 25.375H6.29641L3.14553 27.3244C2.8474 27.5083 2.63317 27.8011 2.54926 28.1403L0.855117 34.9205C0.674812 35.6399 1.11219 36.3701 1.8334 36.5504C1.9423 36.5772 2.05298 36.5915 2.16009 36.5915C2.7617 36.5915 3.30975 36.1844 3.46331 35.5739L5.02538 29.3238L11.4039 25.3767H14.2906L11.9074 27.7492C11.6539 28.0009 11.511 28.3437 11.511 28.7025V32.3229C11.511 33.0656 12.1127 33.6672 12.8553 33.6672C13.5979 33.6672 14.1996 33.0656 14.1996 32.3229V29.2613L18.1003 25.3785H19.8997L23.8004 29.2613V32.3229C23.8004 33.0656 24.4021 33.6672 25.1447 33.6672C25.8873 33.6672 26.489 33.0656 26.489 32.3229V28.7025C26.489 28.3455 26.3461 28.0027 26.0926 27.7492L23.7094 25.3767H26.5961L32.9746 29.3238L34.5367 35.5739C34.6902 36.1844 35.2365 36.5915 35.8399 36.5915C35.947 36.5915 36.0577 36.579 36.1666 36.5504C36.886 36.3701 37.3234 35.6417 37.1449 34.9205L35.4507 28.1403C35.365 27.8011 35.1526 27.5083 34.8545 27.3244L31.7036 25.375H34.2279C36.3076 25.375 38 23.6826 38 21.6028H37.9967ZM18.9987 2.6866C24.7703 2.6866 30.9738 6.31236 31.19 14.2582H6.8074C7.02341 6.31025 13.2271 2.6866 18.9987 2.6866ZM2.68743 21.6028V18.0306C2.68743 17.4326 3.17479 16.947 3.77105 16.947H34.2232C34.8213 16.947 35.3068 17.4344 35.3068 18.0306V21.6028C35.3068 22.2009 34.8195 22.6882 34.2232 22.6882L3.77288 22.6864C3.17483 22.6864 2.68926 22.1991 2.68926 21.601L2.68743 21.6028ZM14.1288 5.51651C11.9936 5.51651 10.2566 7.25353 10.2566 9.38865C10.2566 11.5238 11.9936 13.2608 14.1288 13.2608C16.2639 13.2608 18.0009 11.5238 18.0009 9.38865C18.0009 7.25353 16.2639 5.51651 14.1288 5.51651ZM14.1288 10.572C13.4754 10.572 12.9452 10.0418 12.9452 9.38842C12.9452 8.73503 13.4754 8.20485 14.1288 8.20485C14.7821 8.20485 15.3123 8.73507 15.3123 9.38842C15.3123 10.0418 14.7821 10.572 14.1288 10.572Z" fill="white"/>
</svg>
