<svg width="36" height="37" viewBox="0 0 36 37" fill="none" xmlns="http://www.w3.org/2000/svg">
<path d="M20.7129 0.40625C20.9373 0.40625 21.1191 0.588081 21.1191 0.8125V9.04785C21.1191 9.27224 20.9373 9.4541 20.7129 9.4541H18.6582C19.1356 11.4305 20.1069 13.2569 21.4854 14.7588C22.8531 16.2489 24.5732 17.3657 26.4834 18.0127V15.9121C26.4834 15.6877 26.6652 15.5059 26.8896 15.5059H35.125C35.3494 15.5059 35.5312 15.6877 35.5312 15.9121V35.8125C35.5312 36.0369 35.3494 36.2187 35.125 36.2188H26.8896C26.6652 36.2188 26.4834 36.0369 26.4834 35.8125V33.542C20.4873 32.6861 14.945 29.8524 10.7412 25.4824C6.54081 21.1159 3.92427 15.4735 3.29883 9.4541H0.8125C0.5881 9.4541 0.406281 9.27224 0.40625 9.04785V0.8125C0.40625 0.588081 0.588081 0.40625 0.8125 0.40625H20.7129ZM28.9307 33.7588H33.0596V17.9648H28.9307V33.7588ZM5.77441 9.4541C6.40469 14.8173 8.76768 19.8335 12.5117 23.7363C16.2514 27.6345 21.1582 30.2023 26.4834 31.0576V20.5986C26.4296 20.5853 26.3753 20.5707 26.3223 20.5547C23.7717 19.8095 21.4737 18.3812 19.6768 16.4238C17.8808 14.4674 16.6532 12.0574 16.1279 9.4541H5.77441ZM2.86621 6.99414H18.6602V2.86621H2.86621V6.99414Z" fill="white" stroke="white" stroke-width="0.812694" stroke-linejoin="round"/>
</svg>
