<svg width="40" height="40" viewBox="0 0 40 40" fill="none" xmlns="http://www.w3.org/2000/svg">
<path d="M24.4569 6.94877C24.6649 7.03904 24.8294 7.21401 24.9039 7.43385L24.9272 7.51625C24.9712 7.71088 24.942 7.91593 24.8436 8.09166L21.168 14.6617C20.9914 14.9774 20.6272 15.1381 20.2749 15.0561C19.0549 14.773 17.7422 15.1482 16.8538 16.0326C16.5967 16.2884 16.2008 16.3429 15.8841 16.1659L9.31572 12.4913C9.11479 12.3788 8.97118 12.1862 8.92014 11.9622C8.86892 11.7377 8.91567 11.5024 9.04727 11.315C12.484 6.42299 18.9635 4.58701 24.4561 6.9483L24.4569 6.94877ZM22.9673 8.11729C18.6591 6.67328 13.8374 8.04135 10.9281 11.5313L16.1763 14.4674C17.2633 13.6188 18.6583 13.2211 20.0288 13.3697L22.9673 8.11729Z" fill="white" stroke="white" stroke-width="0.75"/>
<path d="M14.6633 18.3637C14.979 18.5403 15.1405 18.905 15.0585 19.2574C14.7754 20.4773 15.1497 21.7896 16.0342 22.6779C16.2901 22.9352 16.3443 23.3317 16.167 23.6485L12.4928 30.216C12.3804 30.4169 12.1878 30.5606 11.9638 30.6116C11.7665 30.6566 11.5612 30.6258 11.387 30.5284C11.3614 30.5141 11.3382 30.4995 11.3174 30.4849L11.3165 30.4845C6.42465 27.0478 4.58831 20.569 6.94938 15.0765L6.94985 15.0757C7.04075 14.8648 7.21716 14.7018 7.43541 14.6278L7.51781 14.6045C7.7124 14.5606 7.91751 14.5898 8.09322 14.6881L14.6633 18.3637ZM8.12056 16.5654C6.67663 20.8735 8.04302 25.6943 11.5329 28.6036L14.4694 23.3546C13.6211 22.2676 13.2235 20.8737 13.3722 19.5034L8.12056 16.5654Z" fill="white" stroke="white" stroke-width="0.75"/>
<path d="M30.2158 27.0386C30.4167 27.151 30.5595 27.3433 30.6105 27.5672C30.6556 27.7637 30.626 27.9681 30.5296 28.1418L30.4843 28.2149C27.0476 33.1068 20.5688 34.9431 15.0763 32.5821L15.0738 32.5806C15.0504 32.5704 15.0257 32.5582 15.0003 32.544C14.8695 32.4708 14.7616 32.3631 14.6886 32.2331L14.6276 32.096C14.5536 31.8781 14.5756 31.639 14.6879 31.4382L18.3635 24.8682C18.5401 24.5525 18.9049 24.391 19.2572 24.4729C20.4771 24.756 21.7894 24.3817 22.6777 23.4973C22.935 23.2413 23.3315 23.1872 23.6483 23.3644L30.2158 27.0386ZM23.3552 25.0625C22.2683 25.9109 20.8736 26.3079 19.5032 26.1593L16.5652 31.4109C20.8733 32.8548 25.6941 31.4884 28.6034 27.9986L23.3552 25.0625Z" fill="white" stroke="white" stroke-width="0.75"/>
<path d="M28.2158 9.04553L28.2175 9.04649C33.1093 12.4832 34.9457 18.9619 32.5846 24.4544L32.5841 24.4553C32.5045 24.6399 32.3592 24.7878 32.1779 24.8714L32.0986 24.9031C31.8806 24.9772 31.6415 24.9551 31.4408 24.8428L24.8707 21.1672C24.555 20.9906 24.3935 20.6259 24.4755 20.2736C24.7586 19.0537 24.3843 17.7414 23.4998 16.8531C23.2438 16.5958 23.1897 16.1993 23.367 15.8824L27.0412 9.31493C27.1536 9.114 27.3462 8.97039 27.5702 8.91936C27.7964 8.86777 28.0314 8.9173 28.2158 9.04553ZM25.065 16.1755C25.9135 17.2625 26.3105 18.6572 26.1618 20.0275L31.4134 22.9655C32.8574 18.6574 31.4915 13.8358 28.0016 10.9265L25.065 16.1755Z" fill="white" stroke="white" stroke-width="0.75"/>
<path d="M19.75 0.375C30.4338 0.375 39.125 9.06622 39.125 19.75C39.125 30.4338 30.4338 39.125 19.75 39.125C9.06622 39.125 0.375 30.4338 0.375 19.75C0.375 9.06622 9.06622 0.375 19.75 0.375ZM19.75 2.0752C10.0044 2.0752 2.0752 10.0044 2.0752 19.75C2.0752 29.4956 10.0044 37.4248 19.75 37.4248C29.4956 37.4248 37.4248 29.4956 37.4248 19.75C37.4248 10.0044 29.4956 2.0752 19.75 2.0752Z" fill="white" stroke="white" stroke-width="0.75"/>
</svg>
