{
	"asset":{
		"version":"2.0",
		"generator":"libmeshy",
		"copyright":""
	},
	"scenes":[{
		"nodes":[0]
	}],
	"nodes":[{
		"name":"logo",
		"mesh":0,
		"translation":[0.0,
		0.7039587497711182,
		0.0],
		"scale":[1.0,
		1.0,
		1.0],
		"rotation":[0.0,
		0.0,
		0.0,
		-1.0]
	}],
	"meshes":[{
		"name":"logo",
		"primitives":[{
			"attributes":{
				"POSITION":1
			},
			"indices":0,
			"material":0
		}]
	}],
	"accessors":[{
		"bufferView":0,
		"type":"SCALAR",
		"componentType":5123,
		"count":95646,
		"byteOffset":0,
		"min":[0],
		"max":[15952]
	},
	{
		"bufferView":1,
		"type":"VEC3",
		"componentType":5126,
		"count":15953,
		"byteOffset":0,
		"min":[-0.9504169225692749,
		-0.6226661205291748,
		-0.10874594002962113],
		"max":[0.9485007524490356,
		0.6195564270019531,
		0.1070374995470047]
	}],
	"bufferViews":[{
		"buffer":0,
		"byteOffset":0,
		"byteLength":191292,
		"target":34963
	},
	{
		"buffer":0,
		"byteOffset":191292,
		"byteLength":191436,
		"target":34962
	}],
	"buffers":[{
		"uri":"data:application/octet-stream;base64,",
		"byteLength":382728
	}],
	"materials":[{
		"pbrMetallicRoughness":{
			"baseColorFactor":[0.012863833457231522,
			0.5906189680099487,
			0.6866853833198547,
			1.0],
			"metallicFactor":0.0,
			"roughnessFactor":0.20000000298023225
		},
		"emissiveFactor":[0.0,
		0.0,
		0.0],
		"alphaMode":"OPAQUE",
		"doubleSided":false,
		"name":"water"
	}]
}